# xmcd
#
# Track frame offsets:
#	150
#	21413
#	33367
#	56379
#	73449
#	91438
#	106265
#	122255
#	141290
#	159962
#	178940
#	191676
#
# Disc length: 3127 seconds
#
# Revision: 0
# Processed by: cddbd v1.5.2PL0 Copyright (c) Steve Scherf et al.
# Submitted via: dBpowerAMP V4.0
#
DISCID=a50c350c
DTITLE=James Blood Ulmer - Birthright
DYEAR=2005
DGENRE=Blues
TTITLE0=Take My Music Back To The Church
TTITLE1=I Can't Take It No More
TTITLE2=Where Did All The Girls Come From?
TTITLE3=I Ain't Supersticous
TTITLE4=White Man's Jail
TTITLE5=High Yellow
TTITLE6=Evil One, The
TTITLE7=Geechee Joe
TTITLE8=Love Dance Rag
TTITLE9=Sittin' On Top Of The World
TTITLE10=My Most Favorite Thing
TTITLE11=Devil's Got To Burn
EXTD=the best blues album 2005. in Down Beat
EXTT0=
EXTT1=
EXTT2=
EXTT3=
EXTT4=
EXTT5=
EXTT6=
EXTT7=
EXTT8=
EXTT9=
EXTT10=
EXTT11=
PLAYORDER=
